<mxfile host="app.diagrams.net" modified="2024-05-07T03:09:05.160Z" agent="Mozilla/5.0 (Windows NT 10.0; Win64; x64) AppleWebKit/537.36 (KHTML, like Gecko) Chrome/124.0.0.0 Safari/537.36" version="24.3.1" etag="1AhvrzAbyM4dWtXqzEs-" type="github">
  <diagram name="Page-1" id="85v1--rH_fln2Zx9HRif">
    <mxGraphModel>
      <root>
        <mxCell id="0" />
        <mxCell id="1" parent="0" />
      </root>
    </mxGraphModel>
  </diagram>
</mxfile>
